<svg id="visual" viewBox="0 0 1080 1920" width="1080" height="1920" xmlns="http://www.w3.org/2000/svg" xmlns:xlink="http://www.w3.org/1999/xlink" version="1.1"><rect x="0" y="0" width="1080" height="1920" fill="#ffffff"></rect><defs><linearGradient id="grad1_0" x1="0%" y1="100%" x2="100%" y2="0%"><stop offset="30%" stop-color="#49d4c8" stop-opacity="1"></stop><stop offset="70%" stop-color="#49d4c8" stop-opacity="1"></stop></linearGradient></defs><defs><linearGradient id="grad1_1" x1="0%" y1="100%" x2="100%" y2="0%"><stop offset="30%" stop-color="#49d4c8" stop-opacity="1"></stop><stop offset="70%" stop-color="#b0eae3" stop-opacity="1"></stop></linearGradient></defs><defs><linearGradient id="grad1_2" x1="0%" y1="100%" x2="100%" y2="0%"><stop offset="30%" stop-color="#ffffff" stop-opacity="1"></stop><stop offset="70%" stop-color="#b0eae3" stop-opacity="1"></stop></linearGradient></defs><defs><linearGradient id="grad2_0" x1="0%" y1="100%" x2="100%" y2="0%"><stop offset="30%" stop-color="#49d4c8" stop-opacity="1"></stop><stop offset="70%" stop-color="#49d4c8" stop-opacity="1"></stop></linearGradient></defs><defs><linearGradient id="grad2_1" x1="0%" y1="100%" x2="100%" y2="0%"><stop offset="30%" stop-color="#b0eae3" stop-opacity="1"></stop><stop offset="70%" stop-color="#49d4c8" stop-opacity="1"></stop></linearGradient></defs><defs><linearGradient id="grad2_2" x1="0%" y1="100%" x2="100%" y2="0%"><stop offset="30%" stop-color="#b0eae3" stop-opacity="1"></stop><stop offset="70%" stop-color="#ffffff" stop-opacity="1"></stop></linearGradient></defs><g transform="translate(1080, 1920)"><path d="M-486 0C-479.3 -62.9 -472.5 -125.8 -449 -186C-425.5 -246.1 -385.2 -303.5 -333 -333C-280.9 -362.6 -217.1 -364.4 -159.6 -385.3C-102.1 -406.1 -51.1 -446.1 0 -486L0 0Z" fill="#d9f5f1"></path><path d="M-324 0C-319.5 -41.9 -315 -83.9 -299.3 -124C-283.7 -164.1 -256.8 -202.3 -222 -222C-187.3 -241.7 -144.7 -242.9 -106.4 -256.8C-68.1 -270.7 -34 -297.4 0 -324L0 0Z" fill="#83dfd5"></path><path d="M-162 0C-159.8 -21 -157.5 -41.9 -149.7 -62C-141.8 -82 -128.4 -101.2 -111 -111C-93.6 -120.9 -72.4 -121.5 -53.2 -128.4C-34 -135.4 -17 -148.7 0 -162L0 0Z" fill="#49d4c8"></path></g><g transform="translate(0, 0)"><path d="M486 0C433 46.4 380 92.8 358.5 148.5C336.9 204.1 346.7 269 323.9 323.9C301 378.7 245.4 423.6 186 449C126.6 474.4 63.3 480.2 0 486L0 0Z" fill="#d9f5f1"></path><path d="M324 0C288.7 30.9 253.4 61.9 239 99C224.6 136.1 231.2 179.3 215.9 215.9C200.7 252.5 163.6 282.4 124 299.3C84.4 316.2 42.2 320.1 0 324L0 0Z" fill="#83dfd5"></path><path d="M162 0C144.3 15.5 126.7 30.9 119.5 49.5C112.3 68 115.6 89.7 108 108C100.3 126.2 81.8 141.2 62 149.7C42.2 158.1 21.1 160.1 0 162L0 0Z" fill="#49d4c8"></path></g></svg>