<svg id="visual" viewBox="0 0 1080 1920" width="1080" height="1920" xmlns="http://www.w3.org/2000/svg" xmlns:xlink="http://www.w3.org/1999/xlink" version="1.1"><rect x="0" y="0" width="1080" height="1920" fill="#ffffff"></rect><path d="M942 1920L933.5 1893.3C925 1866.7 908 1813.3 902.3 1760C896.7 1706.7 902.3 1653.3 913.2 1600C924 1546.7 940 1493.3 944.8 1440C949.7 1386.7 943.3 1333.3 932.3 1280C921.3 1226.7 905.7 1173.3 904.7 1120C903.7 1066.7 917.3 1013.3 927.2 960C937 906.7 943 853.3 937.2 800C931.3 746.7 913.7 693.3 904.3 640C895 586.7 894 533.3 899.5 480C905 426.7 917 373.3 918.7 320C920.3 266.7 911.7 213.3 903.3 160C895 106.7 887 53.3 883 26.7L879 0L1080 0L1080 26.7C1080 53.3 1080 106.7 1080 160C1080 213.3 1080 266.7 1080 320C1080 373.3 1080 426.7 1080 480C1080 533.3 1080 586.7 1080 640C1080 693.3 1080 746.7 1080 800C1080 853.3 1080 906.7 1080 960C1080 1013.3 1080 1066.7 1080 1120C1080 1173.3 1080 1226.7 1080 1280C1080 1333.3 1080 1386.7 1080 1440C1080 1493.3 1080 1546.7 1080 1600C1080 1653.3 1080 1706.7 1080 1760C1080 1813.3 1080 1866.7 1080 1893.3L1080 1920Z" fill="#49D4C8" stroke-linecap="round" stroke-linejoin="miter"></path></svg>