<svg xmlns="http://www.w3.org/2000/svg" version="1.1" xmlns:xlink="http://www.w3.org/1999/xlink" xmlns:svgjs="http://svgjs.dev/svgjs" width="2000" height="1500" viewBox="0 0 2000 1500"><rect width="2000" height="1500" fill="#ffffff"></rect><g transform="matrix(0.4444444444444444,0,0,0.4444444444444444,555.5555625,250)"><svg viewBox="0 0 320 360" data-background-color="#ffffff" preserveAspectRatio="xMidYMid meet" height="2250" width="2000" xmlns="http://www.w3.org/2000/svg" xmlns:xlink="http://www.w3.org/1999/xlink"><g id="tight-bounds" transform="matrix(1,0,0,1,0.0000025000000505315256,0)"><svg viewBox="0 0 320 360" height="360" width="320"><g><svg></svg></g><g><svg viewBox="0 0 320 360" height="360" width="320"><g><path transform="translate(-19.44751,3.1739) scale(3.53591,3.53591)" d="M67.6 10.7c0.2 0 1.8 0.8 2.7 1.1-0.3 0.1-1-0.2-1.8-0.5 0.2 0 0.6 0.1 1 0.3-0.2-0.2-1.7-0.7-1.9-0.9M52.7 7.6c0.3-0.1 3.8 0.4 5.4 0.5 0.1-0.1-0.2-0.1-0.6-0.2 0.5-0.1 1.5 0.2 2.2 0.3-2.1 0.1-4.4-0.5-6.4-0.3-0.7 0-0.2-0.2-0.6-0.3M49.8 7.6c1.8 0 3.2 0 0.6 0.2-0.3-0.1-0.7-0.1-0.6-0.2M78.1 15.9c0.2 0 1 0.9 1.4 1.2-0.1 0.1-0.9-0.7-1.3-1 0.1 0.1 0 0-0.1-0.2M76.1 14.6c-0.8-0.7-1.1-0.7-1.2-1.1 0.7 0.4 1.2 0.8 1.2 1.1M63.2 8.3c0.1-0.1 0.3 0.1 0.8 0.2-0.6-0.1-0.5 0-0.3 0.2-0.7-0.1-0.9-0.2-0.7-0.4 0.4 0.2 0.5 0.1 0.2 0M34.8 9.5c0-0.1 0.4-0.3 0.7-0.4-0.3 0.2-0.2 0.3 0.3 0.1 0 0.1-0.6 0.3-1 0.5 0.2-0.1 0.4-0.4 0-0.2M65.2 7.3c-0.3 0.1-1.4-0.5-2.5-0.7-0.6-0.2 2.4 0.5 2.5 0.7M6.2 56.7c0.6 2.5 0.2 2.4 0 0M6.3 41.7c0.1-0.4 0.2-1.5 0.3-1.4-0.3 2.4-0.8 3.5-0.9 5.3 0.3-1.6-0.1 0.9-0.2 1.5 0.1 0.8 0.1-0.5 0.3-0.3 0.2 0.3-0.4 4.5-0.2 2.2-0.2 2.1 0 4.4 0.4 5-0.5 3.2 2 10.4 2.5 11.9 0.1 0.1 0-0.5 0.2-0.1 0.2 1.3 1.1 2.2 1.4 3.6 0.3 0.4 1.5 2.6 1.7 3.1 0.4 0.8 0.6 0.7 1 1.5 1.2 2.3 3.1 4.5 4.9 6.6 5.8 6.8 14.7 12.4 24.6 14.4 9.9 2.1 20.3 0.6 28.4-3.3 0.5-0.3 0.4-0.4 1-0.6 2.8-0.9 6.2-3.8 8.1-4.9 0.9-1 3.3-2.7 3.6-3.7 1.7-1.4 3.4-3.7 4.3-5.2 0.5-0.8 0.9-0.8 1.1-1.3-0.1 0 1.6-2.1 2.1-3.3-0.2 0-0.5 0.6-0.5 0 3.6-6.9 5.6-16.2 4.5-22.6 0.2 7.9-1.8 16.7-5.6 22.3-1.7 3.6-5.2 7.5-8.4 10.3-0.5 0.5-1 1.1-1.6 1.5-1.9 1.6-4 2.9-6.2 4.1-5.2 2.9-11 5.4-17.8 5.5 11.7-1 22.2-6.9 28-14.1-4.4 4.3-6.3 6-11.2 8.5-0.4 0.7-3.7 2.1-5.9 2.7 1.3-0.6 4-1.6 4.9-2.4-7.3 3.5-15.4 5.5-23 4.4 2.9 0 7 0.1 10.9-0.6 0.6-0.2 0.9-0.4 1.6-0.5 7.6-1.7 14.9-5.4 20.1-10.6-3 2.7-7.5 5.9-10.4 6.9 2.7-1.5 7.6-4.4 9.2-6.6-3.2 3.2-9.2 6.4-13 7.8-0.6 0.1 0.4-0.4-0.6 0-1.2 0.3-0.7 0.3-1 0.5-4.6 1.3-9.9 2.4-14.3 2-0.8-0.1-1.1-0.3-1.8-0.3-0.8-0.1-1.5-0.1-2.4-0.1-3.5-0.4-7.3-1.8-10.1-3-1.5-0.7-3-1.2-4.5-2.1-1.2-0.7-2.2-1.5-3.2-2.3-3.8-2.8-7-5.6-10-9.6-5.4-7.5-8.2-16.9-7.8-26.2 0.4-9.3 4.1-18.4 10-25.1-0.3 0.3 0.4-0.7 1-1.3 0 0.2-0.1 0.5 0.6-0.2 0.6-0.7-0.2-0.2 0.1-0.6 6.2-6.8 17-12.3 28.1-12.5 0.4-0.3 1.1-0.7 1.9-0.5 0 0.1-0.5 0.1-0.5 0.1 1.1-0.1 2.1-0.1 2.6 0.1 0.1-0.1-0.4-0.2 0-0.2 0.7 0.2 0.9 0 1.3 0.2-0.3 0-0.6 0-0.8 0.1 2.5 0 4.1 0.6 6.6 0.8-1.3-0.3-1.6-0.3-2.6-0.6 1.1 0.2 1.6 0.4 2.1 0.3-0.2 0-0.1-0.3 0.1-0.2 2 0.5 2.2 0.7 4.3 1.4 0.2-0.2-0.9-0.3-1.2-0.6 2 0.7 3.8 1.2 5 2-0.4-0.3-1.6-0.7-2.5-1.1-0.1 0.1 0.3 0.2 0.4 0.4-1-0.5-2.4-1-3.8-1.2 1.2 0.3 2 0.7 2.5 0.9-1.1-0.2-2.5-0.9-4.1-1.2 2.6 0.8 7.5 2.6 10.5 4.2-1.1-0.7-2.4-1.2-3.1-1.6 0.6 0.1 1.3 0.5 1.3 0.3 0.7 0.3 1.6 1 2.1 1.1-0.9-0.6-2.7-1.5-3.3-1.8 7.5 3.4 14.2 9.1 18.5 16.4 0.4 0.7 1 2.3 1.5 2.5-0.1-0.5-0.5-0.8-0.9-1.6 0.2 0 0.2-0.3 0-0.6-0.4-0.5 0 0.4-0.4-0.1-1.8-3.3-4-6.2-7.4-9.4 1.9 1.8 0.5 0.5 0.1-0.1 2.6 2.3 5.6 6.2 6.9 8.2-0.2-0.3-0.3-0.5-0.2-0.5 2.4 4.1 3.9 7.8 5.4 13.1 0.1 0.1 0-0.4 0.2-0.1 1 4.2 1.3 7.7 1.2 10.9 0.8-5.4-1-13.8-4.2-20.4-0.4-0.8-0.4-0.2-0.8-1.1 0-0.3-0.3-0.9-0.5-1.3-4-6.6-8.9-11.3-14.7-15 0.4 0.2 1.2 0.8 1.2 0.7-10.8-7.1-23.3-8.1-33.6-5.9-0.7 0.3-1 0.6-1.8 1 1.5-0.5 2.4-0.6 3.8-0.9 0.3-0.3-1.3 0.1-0.6-0.2 0.1 0.1 1.4-0.2 1.7-0.1 0 0.1-0.4 0.2-0.5 0.3 3.3-0.7 6.7-0.8 9.6-0.6-1.7 0.1-4.8-0.2-5.8 0.3 1-0.1 2.4-0.2 3.3-0.1-1.2 0-3.4 0.1-4.4 0.2-0.1-0.1 1.6-0.3 0.5-0.3-0.5 0.1-1.3 0.1-1.6 0.4-8.6 0.8-17 5.3-22.9 10.6-1.2 1-2.6 2.1-3.5 3.2-2.2 2.5-3.6 5-5.2 7.2 1-2.1 3.2-5.3 5.8-8 2.6-2.7 5.4-5 6.9-6.2 0 0.4 2.4-1.5 3.3-2.1-0.6 0.5 0.4-0.2 0.6-0.1 3.2-1.9 5.8-2.6 8.7-3.7-0.7 0.2-1.3 0.4-1.4 0.3 0.7-0.2 1.1-0.4 1-0.5-2.8 0.8-7.2 2.7-10.7 4.8 6.3-4.3 14.3-6.9 22.2-7 7.9-0.2 15.6 1.8 21.7 5 4.1 1.8 8 5.1 11.1 8.3 0.9 0.8 0.2-0.2 1.5 1.2-0.4-0.2-0.7-0.4-0.2 0.2 0.8 0.9-0.2-0.7 1.1 0.9-0.1 0-0.5-0.5-0.5-0.3 3.5 3.1 6.2 8.7 7.8 12.4-0.4-1.5-1.4-3.6-2.2-5.1 2.4 4.4 3.2 7 4.2 10.9 0.4 0.3-0.2-1.4 0.2-0.6 0.1 0.6 0.2 2.5 0.6 2.8-0.3-1.9-0.8-4.2-1.2-4.6 0.3 0.2-0.5-2.3-1-2.9-0.2-1.6-1.6-4.4-2.8-6.5-4.3-8.4-12-15.3-20.6-19.1 0-0.2-0.5-0.4-0.7-0.6-8.5-3.6-18.7-4.6-28.5-2.3-9.9 2.4-19.2 8.1-25.8 16.3 0.3-1 2.8-2.9 2.9-3.7-2.9 3.1-6 7.2-8.1 11.6-2.2 4.4-3.4 8.9-3.9 12.2" fill="#4d7e3e" fill-rule="nonzero" stroke="none" stroke-width="1" stroke-linecap="butt" stroke-linejoin="miter" stroke-miterlimit="10" stroke-dasharray="" stroke-dashoffset="0" font-family="none" font-weight="none" font-size="none" text-anchor="none" style="mix-blend-mode: normal" data-fill-palette-color="tertiary"></path></g><g transform="matrix(1,0,0,1,48,95.88017048739496)"><svg viewBox="0 0 224 168.23965902521007" height="168.23965902521007" width="224"><g><svg viewBox="0 0 224 168.23965902521007" height="168.23965902521007" width="224"><g transform="matrix(1,0,0,1,0,126.0211716302521)"><svg viewBox="0 0 224 42.21848739495798" height="42.21848739495798" width="224"><g id="textblocktransform"><svg viewBox="0 0 224 42.21848739495798" height="42.21848739495798" width="224" id="textblock"><g><svg viewBox="0 0 224 42.21848739495798" height="42.21848739495798" width="224"><g transform="matrix(1,0,0,1,0,0)"><svg width="224" viewBox="1.65 -36.95 249.88 47.1" height="42.21848739495798" data-palette-color="#4d7e3e"><path d="M2.2-8.25L2.2-8.25Q1.9-8.95 1.78-9.7 1.65-10.45 1.65-11.1L1.65-11.1Q1.65-13.6 3.28-15.53 4.9-17.45 8.4-17.45L8.4-17.45Q9.9-17.45 11.7-17.15 13.5-16.85 15.45-16.53 17.4-16.2 19.25-16.2L19.25-16.2Q21.1-16.2 22.8-16.7 24.5-17.2 25.9-18.5L25.9-18.5Q26.65-16.85 26.65-15.15L26.65-15.15Q26.65-12.75 25.08-10.98 23.5-9.2 19.95-9.2L19.95-9.2Q18.3-9.2 16.3-9.55 14.3-9.9 12.25-10.25 10.2-10.6 8.3-10.6L8.3-10.6Q6.5-10.6 4.93-10.1 3.35-9.6 2.2-8.25ZM37.6 0.3L37.6 0.3Q34.25 0.3 32.07-0.85 29.9-2 28.85-3.8 27.8-5.6 27.8-7.5L27.8-7.5Q27.8-9.35 28.7-11.03 29.6-12.7 31.27-13.8 32.95-14.9 35.25-14.9L35.25-14.9Q35.2-14.45 35.2-14.08 35.2-13.7 35.2-13.7L35.2-13.7Q35.2-10.35 35.85-8.43 36.5-6.5 37.5-5.68 38.5-4.85 39.55-4.85L39.55-4.85Q41.15-4.85 42.4-6.13 43.65-7.4 43.65-9.1L43.65-9.1Q43.65-11 42.02-12.45 40.4-13.9 37.9-15.65L37.9-15.65Q36.5-16.7 34.92-18.03 33.35-19.35 32.25-21.18 31.15-23 31.15-25.5L31.15-25.5Q31.15-28.1 32.37-30.1 33.6-32.1 35.62-33.48 37.65-34.85 40.07-35.58 42.5-36.3 44.9-36.3L44.9-36.3Q47.85-36.3 49.75-35.35 51.65-34.4 52.6-32.9 53.55-31.4 53.55-29.8L53.55-29.8Q53.55-28.3 52.72-26.93 51.9-25.55 50.3-24.7 48.7-23.85 46.35-23.85L46.35-23.85Q46.5-24.55 46.55-25.13 46.6-25.7 46.6-26.15L46.6-26.15Q46.6-28.65 45.52-29.73 44.45-30.8 43.15-30.8L43.15-30.8Q41.9-30.8 40.75-29.88 39.6-28.95 39.6-26.9L39.6-26.9Q39.6-25.15 40.52-23.9 41.45-22.65 42.92-21.7 44.4-20.75 46.05-19.85L46.05-19.85Q47.75-18.95 49.32-17.88 50.9-16.8 51.95-15.35 53-13.9 53-11.7L53-11.7Q53-9.4 51.75-7.23 50.5-5.05 48.35-3.38 46.2-1.7 43.42-0.7 40.65 0.3 37.6 0.3ZM63.2 0.2L63.2 0.2Q61.6 0.2 60.17-0.53 58.75-1.25 57.87-2.8 57-4.35 57-6.75L57-6.75Q57-8.05 57.25-10.15 57.5-12.25 57.92-14.75 58.35-17.25 58.8-19.75L58.8-19.75Q57.8-19.7 56.87-19.55 55.95-19.4 55.05-19.2L55.05-19.2 54.95-19.55Q55.95-20.75 57.05-21.6 58.15-22.45 59.35-23L59.35-23Q60-26.3 60.45-28.73 60.9-31.15 60.9-31.6L60.9-31.6Q60.9-32.45 62.22-33 63.55-33.55 65.2-33.55L65.2-33.55Q66.65-33.55 67.92-33 69.2-32.45 69.65-31.15L69.65-31.15Q69.34-30.85 68.8-28.93 68.25-27 67.65-24.25L67.65-24.25Q68.59-24.2 69.59-24.15 70.59-24.1 71.65-24L71.65-24Q71.75-23.7 71.8-23.35 71.84-23 71.84-22.6L71.84-22.6Q71.84-21.85 71.62-20.98 71.4-20.1 71.09-19.4L71.09-19.4Q69.9-19.5 68.84-19.63 67.8-19.75 66.8-19.8L66.8-19.8Q66.4-17.65 66.07-15.5 65.75-13.35 65.57-11.6 65.4-9.85 65.4-8.85L65.4-8.85Q65.4-6.75 66.17-6.05 66.95-5.35 68.05-5.35L68.05-5.35Q69.05-5.35 69.84-5.75 70.65-6.15 71-6.7L71-6.7 71.5-6.55Q71.2-4.5 69.9-2.98 68.59-1.45 66.8-0.63 65 0.2 63.2 0.2ZM91.94 0.25L91.94 0.25Q90.19 0.25 88.89-0.9 87.59-2.05 87.59-4.65L87.59-4.65Q87.59-4.9 87.59-5.15 87.59-5.4 87.64-5.65L87.64-5.65Q86.14-2.65 84.27-1.23 82.39 0.2 80.49 0.2L80.49 0.2Q78.74 0.2 77.19-1.03 75.64-2.25 74.69-4.65 73.74-7.05 73.74-10.45L73.74-10.45Q73.74-13.95 74.72-16.7 75.69-19.45 77.29-21.35 78.89-23.25 80.79-24.23 82.69-25.2 84.49-25.2L84.49-25.2Q86.49-25.2 88.09-23.98 89.69-22.75 90.29-20.1L90.29-20.1Q90.44-20.95 90.52-21.65 90.59-22.35 90.59-22.6L90.59-22.6Q90.64-23.95 91.97-24.6 93.29-25.25 94.89-25.25L94.89-25.25Q96.29-25.25 97.54-24.7 98.79-24.15 99.24-22.85L99.24-22.85 99.34-22.55Q98.74-21.2 98.14-19.3 97.54-17.4 97.04-15.33 96.54-13.25 96.24-11.28 95.94-9.3 95.94-7.8L95.94-7.8Q95.94-6.15 96.29-5.53 96.64-4.9 97.14-4.9L97.14-4.9Q97.99-4.9 98.69-6.1L98.69-6.1 99.09-5.9Q99.09-4.2 97.99-2.8 96.89-1.4 95.24-0.58 93.59 0.25 91.94 0.25ZM83.79-6.1L83.79-6.1Q85.09-6.1 86.67-8.43 88.24-10.75 89.39-15.1L89.39-15.1Q89.49-15.55 89.59-15.98 89.69-16.4 89.74-16.8L89.74-16.8Q88.94-18.65 88.07-19.43 87.19-20.2 86.34-20.2L86.34-20.2Q85.09-20.2 84.02-18.88 82.94-17.55 82.27-15.55 81.59-13.55 81.59-11.55L81.59-11.55Q81.59-8.8 82.22-7.45 82.84-6.1 83.79-6.1ZM107.19 10.15L107.19 10.15Q105.74 10.15 104.44 9.63 103.14 9.1 102.64 8.05L102.64 8.05Q103.84 2.95 104.62-1 105.39-4.95 105.84-8.05 106.29-11.15 106.49-13.73 106.69-16.3 106.74-18.7L106.74-18.7Q105.04-18.6 103.49-18.38 101.94-18.15 100.79-17.75L100.79-17.75 100.69-18.1Q102.14-19.55 103.69-20.53 105.24-21.5 106.79-22.1L106.79-22.1 106.79-25.9Q106.79-29.75 108.34-32.18 109.89-34.6 112.32-35.77 114.74-36.95 117.34-36.95L117.34-36.95Q120.79-36.95 122.52-35.3 124.24-33.65 124.24-31.6L124.24-31.6Q124.24-30.1 123.32-28.7 122.39-27.3 120.54-26.38 118.69-25.45 115.89-25.45L115.89-25.45Q116.69-26.9 117.12-28.35 117.54-29.8 117.54-30.9L117.54-30.9Q117.54-31.75 117.29-32.27 117.04-32.8 116.59-32.8L116.59-32.8Q115.64-32.8 114.77-30.43 113.89-28.05 113.89-24.2L113.89-24.2 113.89-23.25Q115.34-23.3 116.67-23.2 117.99-23.1 119.14-23L119.14-23Q119.24-22.65 119.29-22.25 119.34-21.85 119.34-21.45L119.34-21.45Q119.34-20.7 119.14-19.95 118.94-19.2 118.59-18.4L118.59-18.4Q117.69-18.5 116.54-18.6 115.39-18.7 114.09-18.75L114.09-18.75 114.09-17.65Q114.09-14.9 113.87-11.3 113.64-7.7 113.04-2.75 112.44 2.2 111.19 9.05L111.19 9.05Q109.64 10.15 107.19 10.15ZM127.09 10.15L127.09 10.15Q125.64 10.15 124.34 9.63 123.04 9.1 122.54 8.05L122.54 8.05Q123.74 2.95 124.51-1 125.29-4.95 125.74-8.05 126.19-11.15 126.39-13.73 126.59-16.3 126.64-18.7L126.64-18.7Q124.94-18.6 123.39-18.38 121.84-18.15 120.69-17.75L120.69-17.75 120.59-18.1Q122.04-19.55 123.59-20.53 125.14-21.5 126.69-22.1L126.69-22.1 126.69-25.9Q126.69-29.75 128.24-32.18 129.79-34.6 132.21-35.77 134.64-36.95 137.24-36.95L137.24-36.95Q140.69-36.95 142.41-35.3 144.14-33.65 144.14-31.6L144.14-31.6Q144.14-30.1 143.21-28.7 142.29-27.3 140.44-26.38 138.59-25.45 135.79-25.45L135.79-25.45Q136.59-26.9 137.01-28.35 137.44-29.8 137.44-30.9L137.44-30.9Q137.44-31.75 137.19-32.27 136.94-32.8 136.49-32.8L136.49-32.8Q135.54-32.8 134.66-30.43 133.79-28.05 133.79-24.2L133.79-24.2 133.79-23.25Q135.24-23.3 136.56-23.2 137.89-23.1 139.04-23L139.04-23Q139.14-22.65 139.19-22.25 139.24-21.85 139.24-21.45L139.24-21.45Q139.24-20.7 139.04-19.95 138.84-19.2 138.49-18.4L138.49-18.4Q137.59-18.5 136.44-18.6 135.29-18.7 133.99-18.75L133.99-18.75 133.99-17.65Q133.99-14.9 133.76-11.3 133.54-7.7 132.94-2.75 132.34 2.2 131.09 9.05L131.09 9.05Q129.54 10.15 127.09 10.15ZM159.38 0.3L159.38 0.3Q156.03 0.3 153.86-0.85 151.68-2 150.63-3.8 149.58-5.6 149.58-7.5L149.58-7.5Q149.58-9.35 150.48-11.03 151.38-12.7 153.06-13.8 154.73-14.9 157.03-14.9L157.03-14.9Q156.98-14.45 156.98-14.08 156.98-13.7 156.98-13.7L156.98-13.7Q156.98-10.35 157.63-8.43 158.28-6.5 159.28-5.68 160.28-4.85 161.33-4.85L161.33-4.85Q162.93-4.85 164.18-6.13 165.43-7.4 165.43-9.1L165.43-9.1Q165.43-11 163.81-12.45 162.18-13.9 159.68-15.65L159.68-15.65Q158.28-16.7 156.71-18.03 155.13-19.35 154.03-21.18 152.93-23 152.93-25.5L152.93-25.5Q152.93-28.1 154.16-30.1 155.38-32.1 157.41-33.48 159.43-34.85 161.86-35.58 164.28-36.3 166.68-36.3L166.68-36.3Q169.63-36.3 171.53-35.35 173.43-34.4 174.38-32.9 175.33-31.4 175.33-29.8L175.33-29.8Q175.33-28.3 174.51-26.93 173.68-25.55 172.08-24.7 170.48-23.85 168.13-23.85L168.13-23.85Q168.28-24.55 168.33-25.13 168.38-25.7 168.38-26.15L168.38-26.15Q168.38-28.65 167.31-29.73 166.23-30.8 164.93-30.8L164.93-30.8Q163.68-30.8 162.53-29.88 161.38-28.95 161.38-26.9L161.38-26.9Q161.38-25.15 162.31-23.9 163.23-22.65 164.71-21.7 166.18-20.75 167.83-19.85L167.83-19.85Q169.53-18.95 171.11-17.88 172.68-16.8 173.73-15.35 174.78-13.9 174.78-11.7L174.78-11.7Q174.78-9.4 173.53-7.23 172.28-5.05 170.13-3.38 167.98-1.7 165.21-0.7 162.43 0.3 159.38 0.3ZM182.48 10L182.48 10Q181.23 10 180.11 9.35 178.98 8.7 178.26 7.25 177.53 5.8 177.53 3.35L177.53 3.35Q177.53 1 178.16-1.75 178.78-4.5 179.58-7.28 180.38-10.05 181.01-12.55 181.63-15.05 181.63-17L181.63-17Q181.63-18.45 181.23-18.98 180.83-19.5 180.28-19.5L180.28-19.5Q179.78-19.5 179.28-19.2 178.78-18.9 178.43-18.5L178.43-18.5 178.08-18.7Q178.08-20.45 179.11-21.93 180.13-23.4 181.73-24.3 183.33-25.2 185.03-25.2L185.03-25.2Q186.68-25.2 187.68-24.38 188.68-23.55 189.21-22.25 189.73-20.95 189.83-19.45L189.83-19.45Q191.73-22.45 193.98-23.9 196.23-25.35 198.23-25.35L198.23-25.35Q200.93-25.35 202.81-22.8 204.68-20.25 204.68-14.9L204.68-14.9Q204.68-9.9 203.08-6.53 201.48-3.15 199.06-1.48 196.63 0.2 194.13 0.2L194.13 0.2Q191.98 0.2 190.16-1.07 188.33-2.35 187.33-4.8L187.33-4.8Q186.88-2.75 186.56-0.75 186.23 1.25 186.23 3.15L186.23 3.15Q186.23 4.2 186.36 5.2 186.48 6.2 186.78 7.2L186.78 7.2 186.78 7.5Q186.13 8.75 184.96 9.38 183.78 10 182.48 10ZM191.68-4.65L191.68-4.65Q192.88-4.65 193.78-5.6 194.68-6.55 195.33-8.08 195.98-9.6 196.31-11.35 196.63-13.1 196.63-14.75L196.63-14.75Q196.63-16.85 196.08-18.32 195.53-19.8 194.38-19.8L194.38-19.8Q192.93-19.8 191.13-16.88 189.33-13.95 188.33-8L188.33-8Q188.78-6.45 189.68-5.55 190.58-4.65 191.68-4.65ZM218.33 0.35L218.33 0.35Q214.58 0.35 212.13-1.15 209.68-2.65 208.5-5.13 207.33-7.6 207.33-10.4L207.33-10.4Q207.33-13.05 208.3-15.7 209.28-18.35 211.15-20.53 213.03-22.7 215.73-24.03 218.43-25.35 221.93-25.35L221.93-25.35Q225.68-25.35 228.1-23.83 230.53-22.3 231.7-19.8 232.88-17.3 232.88-14.45L232.88-14.45Q232.88-11.85 231.93-9.22 230.98-6.6 229.1-4.42 227.23-2.25 224.53-0.95 221.83 0.35 218.33 0.35ZM219.68-3.9L219.68-3.9Q221.03-3.9 221.93-5.3 222.83-6.7 223.28-8.88 223.73-11.05 223.73-13.3L223.73-13.3Q223.73-15.3 223.35-17.07 222.98-18.85 222.23-19.98 221.48-21.1 220.28-21.1L220.28-21.1Q218.98-21.1 218.05-19.7 217.13-18.3 216.68-16.15 216.23-14 216.23-11.7L216.23-11.7Q216.23-9.7 216.6-7.93 216.98-6.15 217.73-5.03 218.48-3.9 219.68-3.9ZM242.88 0.2L242.88 0.2Q241.28 0.2 239.85-0.53 238.43-1.25 237.55-2.8 236.68-4.35 236.68-6.75L236.68-6.75Q236.68-8.05 236.93-10.15 237.18-12.25 237.6-14.75 238.03-17.25 238.48-19.75L238.48-19.75Q237.48-19.7 236.55-19.55 235.63-19.4 234.73-19.2L234.73-19.2 234.63-19.55Q235.63-20.75 236.73-21.6 237.83-22.45 239.03-23L239.03-23Q239.68-26.3 240.13-28.73 240.58-31.15 240.58-31.6L240.58-31.6Q240.58-32.45 241.9-33 243.23-33.55 244.88-33.55L244.88-33.55Q246.33-33.55 247.6-33 248.88-32.45 249.33-31.15L249.33-31.15Q249.03-30.85 248.48-28.93 247.93-27 247.33-24.25L247.33-24.25Q248.28-24.2 249.28-24.15 250.28-24.1 251.33-24L251.33-24Q251.43-23.7 251.48-23.35 251.53-23 251.53-22.6L251.53-22.6Q251.53-21.85 251.3-20.98 251.08-20.1 250.78-19.4L250.78-19.4Q249.58-19.5 248.53-19.63 247.48-19.75 246.48-19.8L246.48-19.8Q246.08-17.65 245.75-15.5 245.43-13.35 245.25-11.6 245.08-9.85 245.08-8.85L245.08-8.85Q245.08-6.75 245.85-6.05 246.63-5.35 247.73-5.35L247.73-5.35Q248.73-5.35 249.53-5.75 250.33-6.15 250.68-6.7L250.68-6.7 251.18-6.55Q250.88-4.5 249.58-2.98 248.28-1.45 246.48-0.63 244.68 0.2 242.88 0.2Z" opacity="1" transform="matrix(1,0,0,1,0,0)" fill="#4d7e3e" class="wordmark-text-0" data-fill-palette-color="primary" id="text-0"></path></svg></g></svg></g></svg></g></svg></g><g transform="matrix(1,0,0,1,80.87927378120538,0)"><svg viewBox="0 0 62.24145243758923 116.0544" height="116.0544" width="62.24145243758923"><g><svg xmlns="http://www.w3.org/2000/svg" xmlns:xlink="http://www.w3.org/1999/xlink" version="1.1" x="0" y="0" viewBox="27.129 7.088408414268828 46.44499999999999 86.60059167810726" enable-background="new 0 0 100 100" xml:space="preserve" height="116.0544" width="62.24145243758923" class="icon-icon-0" data-fill-palette-color="accent" id="icon-0"><path d="M50.351 61.271C37.546 61.271 27.129 50.74 27.129 37.795S37.546 14.318 50.351 14.318 73.574 24.85 73.574 37.795 63.155 61.271 50.351 61.271M50.351 18.319C39.752 18.319 31.129 27.056 31.129 37.796S39.752 57.272 50.351 57.272 69.574 48.535 69.574 37.796 60.95 18.319 50.351 18.319" fill="#4d7e3e" data-fill-palette-color="accent"></path><path d="M72 38.98C50 38.98 43.046 34.477 40.231 31.701 37.545 33.678 32.476 35.754 30.875 36.406L29.801 32.533C33.855 30.881 37.89 28.672 38.467 27.806A2 2 0 0 1 39.93 26.911C40.524 26.851 41.12 27.05 41.544 27.474 41.69 27.62 42.061 27.797 42.243 27.999 43.958 29.91 48 34.98 72 34.98z" fill="#4d7e3e" data-fill-palette-color="accent"></path><path d="M41.238 18.785L37.843 13.657A2 2 0 0 1 41.177 11.449L42.346 13.215 44.034 8.382A2.001 2.001 0 0 1 47.811 9.701L44.792 18.341z" fill="#4d7e3e" data-fill-palette-color="accent"></path><path d="M44.854 43.561A2 2 0 0 1 42.854 41.561V39.118A2 2 0 0 1 46.854 39.118V41.561A2 2 0 0 1 44.854 43.561" fill="#4d7e3e" data-fill-palette-color="accent"></path><path d="M55.848 43.561A2 2 0 0 1 53.848 41.561V39.118A2 2 0 0 1 57.848 39.118V41.561A2 2 0 0 1 55.848 43.561" fill="#4d7e3e" data-fill-palette-color="accent"></path><path d="M50.538 52.815C48.743 52.815 47.155 52.185 46.226 51.595A2 2 0 0 1 48.357 48.209C48.47 48.277 50.537 49.494 52.352 48.255A2 2 0 0 1 54.61 51.556 7.1 7.1 0 0 1 50.538 52.815" fill="#4d7e3e" data-fill-palette-color="accent"></path><path d="M54.627 68H47.959C46.93 68 46.069 67.22 45.969 66.196L45.308 59.474A2 2 0 0 1 49.288 59.082L49.772 64H52.828L53.362 58.979C53.479 57.881 54.453 57.1 55.563 57.202A2 2 0 0 1 57.339 59.403L56.614 66.212A1.997 1.997 0 0 1 54.627 68" fill="#4d7e3e" data-fill-palette-color="accent"></path><path d="M51.324 93.689A2 2 0 0 1 49.916 93.11L44.059 87.307A2 2 0 0 1 43.499 85.527L47.137 65.629A2.001 2.001 0 0 1 51.072 66.348L47.624 85.208 52.731 90.269A2 2 0 0 1 51.324 93.689" fill="#4d7e3e" data-fill-palette-color="accent"></path><path d="M51.572 93.689A2 2 0 0 1 50.164 90.268L55.256 85.223 51.481 66.38A2 2 0 0 1 55.403 65.594L59.39 85.492A2 2 0 0 1 58.836 87.305L52.979 93.108A2 2 0 0 1 51.572 93.689" fill="#4d7e3e" data-fill-palette-color="accent"></path></svg></g></svg></g><g></g></svg></g></svg></g></svg></g><defs></defs></svg><rect width="320" height="360" fill="none" stroke="none" visibility="hidden"></rect></g></svg></g></svg>